<svg id="svgQrWrapper" viewBox="0 0 300 300" xmlns="http://www.w3.org/2000/svg" xmlns:xlink="http://www.w3.org/1999/xlink" width="300" height="300" style="width: 100%; height: 100%; background-color: transparent;"><svg><g transform="translate(9, 9)scale(0.95)" fill="none"><svg width="300" height="300"><style>.dot-color{ fill: #000000; }.corners-square-color-0-0{ fill: #000000; }.corners-dot-color-0-0{ fill: #000000; }.corners-square-color-1-0{ fill: #000000; }.corners-dot-color-1-0{ fill: #000000; }.corners-square-color-0-1{ fill: #000000; }.corners-dot-color-0-1{ fill: #000000; }</style><defs/><rect x="0" y="0" height="300" width="300" clip-path="url('#clip-path-background-color')"/><g class="dot-color"><circle cx="10" cy="100" r="5" transform="rotate(0,10,100)"/><circle cx="10" cy="110" r="5" transform="rotate(0,10,110)"/><circle cx="10" cy="130" r="5" transform="rotate(0,10,130)"/><circle cx="10" cy="150" r="5" transform="rotate(0,10,150)"/><circle cx="10" cy="160" r="5" transform="rotate(0,10,160)"/><circle cx="10" cy="170" r="5" transform="rotate(0,10,170)"/><circle cx="10" cy="180" r="5" transform="rotate(0,10,180)"/><circle cx="10" cy="200" r="5" transform="rotate(0,10,200)"/><circle cx="20" cy="90" r="5" transform="rotate(0,20,90)"/><circle cx="20" cy="100" r="5" transform="rotate(0,20,100)"/><circle cx="20" cy="130" r="5" transform="rotate(0,20,130)"/><circle cx="20" cy="160" r="5" transform="rotate(0,20,160)"/><circle cx="20" cy="180" r="5" transform="rotate(0,20,180)"/><circle cx="20" cy="190" r="5" transform="rotate(0,20,190)"/><circle cx="20" cy="210" r="5" transform="rotate(0,20,210)"/><circle cx="30" cy="90" r="5" transform="rotate(0,30,90)"/><circle cx="30" cy="120" r="5" transform="rotate(0,30,120)"/><circle cx="30" cy="130" r="5" transform="rotate(0,30,130)"/><circle cx="30" cy="140" r="5" transform="rotate(0,30,140)"/><circle cx="30" cy="150" r="5" transform="rotate(0,30,150)"/><circle cx="30" cy="160" r="5" transform="rotate(0,30,160)"/><circle cx="30" cy="190" r="5" transform="rotate(0,30,190)"/><circle cx="30" cy="200" r="5" transform="rotate(0,30,200)"/><circle cx="40" cy="120" r="5" transform="rotate(0,40,120)"/><circle cx="40" cy="130" r="5" transform="rotate(0,40,130)"/><circle cx="40" cy="140" r="5" transform="rotate(0,40,140)"/><circle cx="40" cy="180" r="5" transform="rotate(0,40,180)"/><circle cx="40" cy="200" r="5" transform="rotate(0,40,200)"/><circle cx="50" cy="100" r="5" transform="rotate(0,50,100)"/><circle cx="50" cy="120" r="5" transform="rotate(0,50,120)"/><circle cx="50" cy="130" r="5" transform="rotate(0,50,130)"/><circle cx="50" cy="140" r="5" transform="rotate(0,50,140)"/><circle cx="50" cy="160" r="5" transform="rotate(0,50,160)"/><circle cx="50" cy="180" r="5" transform="rotate(0,50,180)"/><circle cx="50" cy="200" r="5" transform="rotate(0,50,200)"/><circle cx="60" cy="100" r="5" transform="rotate(0,60,100)"/><circle cx="60" cy="110" r="5" transform="rotate(0,60,110)"/><circle cx="60" cy="120" r="5" transform="rotate(0,60,120)"/><circle cx="60" cy="130" r="5" transform="rotate(0,60,130)"/><circle cx="60" cy="170" r="5" transform="rotate(0,60,170)"/><circle cx="60" cy="180" r="5" transform="rotate(0,60,180)"/><circle cx="60" cy="200" r="5" transform="rotate(0,60,200)"/><circle cx="70" cy="90" r="5" transform="rotate(0,70,90)"/><circle cx="70" cy="110" r="5" transform="rotate(0,70,110)"/><circle cx="70" cy="130" r="5" transform="rotate(0,70,130)"/><circle cx="70" cy="150" r="5" transform="rotate(0,70,150)"/><circle cx="70" cy="170" r="5" transform="rotate(0,70,170)"/><circle cx="70" cy="190" r="5" transform="rotate(0,70,190)"/><circle cx="70" cy="210" r="5" transform="rotate(0,70,210)"/><circle cx="80" cy="110" r="5" transform="rotate(0,80,110)"/><circle cx="80" cy="120" r="5" transform="rotate(0,80,120)"/><circle cx="80" cy="160" r="5" transform="rotate(0,80,160)"/><circle cx="80" cy="180" r="5" transform="rotate(0,80,180)"/><circle cx="80" cy="190" r="5" transform="rotate(0,80,190)"/><circle cx="80" cy="200" r="5" transform="rotate(0,80,200)"/><circle cx="90" cy="20" r="5" transform="rotate(0,90,20)"/><circle cx="90" cy="30" r="5" transform="rotate(0,90,30)"/><circle cx="90" cy="40" r="5" transform="rotate(0,90,40)"/><circle cx="90" cy="60" r="5" transform="rotate(0,90,60)"/><circle cx="90" cy="70" r="5" transform="rotate(0,90,70)"/><circle cx="90" cy="100" r="5" transform="rotate(0,90,100)"/><circle cx="90" cy="140" r="5" transform="rotate(0,90,140)"/><circle cx="90" cy="150" r="5" transform="rotate(0,90,150)"/><circle cx="90" cy="210" r="5" transform="rotate(0,90,210)"/><circle cx="90" cy="270" r="5" transform="rotate(0,90,270)"/><circle cx="90" cy="280" r="5" transform="rotate(0,90,280)"/><circle cx="100" cy="20" r="5" transform="rotate(0,100,20)"/><circle cx="100" cy="50" r="5" transform="rotate(0,100,50)"/><circle cx="100" cy="60" r="5" transform="rotate(0,100,60)"/><circle cx="100" cy="110" r="5" transform="rotate(0,100,110)"/><circle cx="100" cy="140" r="5" transform="rotate(0,100,140)"/><circle cx="100" cy="160" r="5" transform="rotate(0,100,160)"/><circle cx="100" cy="190" r="5" transform="rotate(0,100,190)"/><circle cx="100" cy="200" r="5" transform="rotate(0,100,200)"/><circle cx="100" cy="220" r="5" transform="rotate(0,100,220)"/><circle cx="100" cy="230" r="5" transform="rotate(0,100,230)"/><circle cx="100" cy="240" r="5" transform="rotate(0,100,240)"/><circle cx="100" cy="250" r="5" transform="rotate(0,100,250)"/><circle cx="100" cy="260" r="5" transform="rotate(0,100,260)"/><circle cx="100" cy="270" r="5" transform="rotate(0,100,270)"/><circle cx="100" cy="290" r="5" transform="rotate(0,100,290)"/><circle cx="110" cy="10" r="5" transform="rotate(0,110,10)"/><circle cx="110" cy="30" r="5" transform="rotate(0,110,30)"/><circle cx="110" cy="40" r="5" transform="rotate(0,110,40)"/><circle cx="110" cy="70" r="5" transform="rotate(0,110,70)"/><circle cx="110" cy="80" r="5" transform="rotate(0,110,80)"/><circle cx="110" cy="100" r="5" transform="rotate(0,110,100)"/><circle cx="110" cy="110" r="5" transform="rotate(0,110,110)"/><circle cx="110" cy="120" r="5" transform="rotate(0,110,120)"/><circle cx="110" cy="130" r="5" transform="rotate(0,110,130)"/><circle cx="110" cy="140" r="5" transform="rotate(0,110,140)"/><circle cx="110" cy="170" r="5" transform="rotate(0,110,170)"/><circle cx="110" cy="180" r="5" transform="rotate(0,110,180)"/><circle cx="110" cy="190" r="5" transform="rotate(0,110,190)"/><circle cx="110" cy="210" r="5" transform="rotate(0,110,210)"/><circle cx="110" cy="230" r="5" transform="rotate(0,110,230)"/><circle cx="110" cy="260" r="5" transform="rotate(0,110,260)"/><circle cx="110" cy="280" r="5" transform="rotate(0,110,280)"/><circle cx="120" cy="10" r="5" transform="rotate(0,120,10)"/><circle cx="120" cy="20" r="5" transform="rotate(0,120,20)"/><circle cx="120" cy="30" r="5" transform="rotate(0,120,30)"/><circle cx="120" cy="50" r="5" transform="rotate(0,120,50)"/><circle cx="120" cy="60" r="5" transform="rotate(0,120,60)"/><circle cx="120" cy="80" r="5" transform="rotate(0,120,80)"/><circle cx="120" cy="90" r="5" transform="rotate(0,120,90)"/><circle cx="120" cy="100" r="5" transform="rotate(0,120,100)"/><circle cx="120" cy="120" r="5" transform="rotate(0,120,120)"/><circle cx="120" cy="130" r="5" transform="rotate(0,120,130)"/><circle cx="120" cy="140" r="5" transform="rotate(0,120,140)"/><circle cx="120" cy="150" r="5" transform="rotate(0,120,150)"/><circle cx="120" cy="190" r="5" transform="rotate(0,120,190)"/><circle cx="120" cy="250" r="5" transform="rotate(0,120,250)"/><circle cx="120" cy="290" r="5" transform="rotate(0,120,290)"/><circle cx="130" cy="50" r="5" transform="rotate(0,130,50)"/><circle cx="130" cy="70" r="5" transform="rotate(0,130,70)"/><circle cx="130" cy="80" r="5" transform="rotate(0,130,80)"/><circle cx="130" cy="120" r="5" transform="rotate(0,130,120)"/><circle cx="130" cy="130" r="5" transform="rotate(0,130,130)"/><circle cx="130" cy="170" r="5" transform="rotate(0,130,170)"/><circle cx="130" cy="180" r="5" transform="rotate(0,130,180)"/><circle cx="130" cy="190" r="5" transform="rotate(0,130,190)"/><circle cx="130" cy="220" r="5" transform="rotate(0,130,220)"/><circle cx="130" cy="240" r="5" transform="rotate(0,130,240)"/><circle cx="130" cy="270" r="5" transform="rotate(0,130,270)"/><circle cx="130" cy="280" r="5" transform="rotate(0,130,280)"/><circle cx="130" cy="290" r="5" transform="rotate(0,130,290)"/><circle cx="140" cy="40" r="5" transform="rotate(0,140,40)"/><circle cx="140" cy="80" r="5" transform="rotate(0,140,80)"/><circle cx="140" cy="100" r="5" transform="rotate(0,140,100)"/><circle cx="140" cy="110" r="5" transform="rotate(0,140,110)"/><circle cx="140" cy="130" r="5" transform="rotate(0,140,130)"/><circle cx="140" cy="160" r="5" transform="rotate(0,140,160)"/><circle cx="140" cy="170" r="5" transform="rotate(0,140,170)"/><circle cx="140" cy="200" r="5" transform="rotate(0,140,200)"/><circle cx="140" cy="210" r="5" transform="rotate(0,140,210)"/><circle cx="140" cy="230" r="5" transform="rotate(0,140,230)"/><circle cx="140" cy="240" r="5" transform="rotate(0,140,240)"/><circle cx="140" cy="260" r="5" transform="rotate(0,140,260)"/><circle cx="140" cy="270" r="5" transform="rotate(0,140,270)"/><circle cx="140" cy="290" r="5" transform="rotate(0,140,290)"/><circle cx="150" cy="50" r="5" transform="rotate(0,150,50)"/><circle cx="150" cy="70" r="5" transform="rotate(0,150,70)"/><circle cx="150" cy="80" r="5" transform="rotate(0,150,80)"/><circle cx="150" cy="90" r="5" transform="rotate(0,150,90)"/><circle cx="150" cy="110" r="5" transform="rotate(0,150,110)"/><circle cx="150" cy="170" r="5" transform="rotate(0,150,170)"/><circle cx="150" cy="180" r="5" transform="rotate(0,150,180)"/><circle cx="150" cy="190" r="5" transform="rotate(0,150,190)"/><circle cx="150" cy="200" r="5" transform="rotate(0,150,200)"/><circle cx="150" cy="210" r="5" transform="rotate(0,150,210)"/><circle cx="150" cy="220" r="5" transform="rotate(0,150,220)"/><circle cx="150" cy="230" r="5" transform="rotate(0,150,230)"/><circle cx="150" cy="240" r="5" transform="rotate(0,150,240)"/><circle cx="150" cy="250" r="5" transform="rotate(0,150,250)"/><circle cx="150" cy="260" r="5" transform="rotate(0,150,260)"/><circle cx="150" cy="280" r="5" transform="rotate(0,150,280)"/><circle cx="150" cy="290" r="5" transform="rotate(0,150,290)"/><circle cx="160" cy="10" r="5" transform="rotate(0,160,10)"/><circle cx="160" cy="20" r="5" transform="rotate(0,160,20)"/><circle cx="160" cy="30" r="5" transform="rotate(0,160,30)"/><circle cx="160" cy="40" r="5" transform="rotate(0,160,40)"/><circle cx="160" cy="50" r="5" transform="rotate(0,160,50)"/><circle cx="160" cy="80" r="5" transform="rotate(0,160,80)"/><circle cx="160" cy="90" r="5" transform="rotate(0,160,90)"/><circle cx="160" cy="100" r="5" transform="rotate(0,160,100)"/><circle cx="160" cy="140" r="5" transform="rotate(0,160,140)"/><circle cx="160" cy="170" r="5" transform="rotate(0,160,170)"/><circle cx="160" cy="180" r="5" transform="rotate(0,160,180)"/><circle cx="160" cy="190" r="5" transform="rotate(0,160,190)"/><circle cx="160" cy="250" r="5" transform="rotate(0,160,250)"/><circle cx="160" cy="260" r="5" transform="rotate(0,160,260)"/><circle cx="160" cy="290" r="5" transform="rotate(0,160,290)"/><circle cx="170" cy="20" r="5" transform="rotate(0,170,20)"/><circle cx="170" cy="30" r="5" transform="rotate(0,170,30)"/><circle cx="170" cy="60" r="5" transform="rotate(0,170,60)"/><circle cx="170" cy="70" r="5" transform="rotate(0,170,70)"/><circle cx="170" cy="80" r="5" transform="rotate(0,170,80)"/><circle cx="170" cy="110" r="5" transform="rotate(0,170,110)"/><circle cx="170" cy="120" r="5" transform="rotate(0,170,120)"/><circle cx="170" cy="140" r="5" transform="rotate(0,170,140)"/><circle cx="170" cy="150" r="5" transform="rotate(0,170,150)"/><circle cx="170" cy="170" r="5" transform="rotate(0,170,170)"/><circle cx="170" cy="180" r="5" transform="rotate(0,170,180)"/><circle cx="170" cy="190" r="5" transform="rotate(0,170,190)"/><circle cx="170" cy="240" r="5" transform="rotate(0,170,240)"/><circle cx="170" cy="250" r="5" transform="rotate(0,170,250)"/><circle cx="170" cy="260" r="5" transform="rotate(0,170,260)"/><circle cx="180" cy="40" r="5" transform="rotate(0,180,40)"/><circle cx="180" cy="50" r="5" transform="rotate(0,180,50)"/><circle cx="180" cy="60" r="5" transform="rotate(0,180,60)"/><circle cx="180" cy="80" r="5" transform="rotate(0,180,80)"/><circle cx="180" cy="90" r="5" transform="rotate(0,180,90)"/><circle cx="180" cy="100" r="5" transform="rotate(0,180,100)"/><circle cx="180" cy="130" r="5" transform="rotate(0,180,130)"/><circle cx="180" cy="140" r="5" transform="rotate(0,180,140)"/><circle cx="180" cy="150" r="5" transform="rotate(0,180,150)"/><circle cx="180" cy="170" r="5" transform="rotate(0,180,170)"/><circle cx="180" cy="180" r="5" transform="rotate(0,180,180)"/><circle cx="180" cy="210" r="5" transform="rotate(0,180,210)"/><circle cx="180" cy="220" r="5" transform="rotate(0,180,220)"/><circle cx="180" cy="240" r="5" transform="rotate(0,180,240)"/><circle cx="180" cy="270" r="5" transform="rotate(0,180,270)"/><circle cx="190" cy="10" r="5" transform="rotate(0,190,10)"/><circle cx="190" cy="50" r="5" transform="rotate(0,190,50)"/><circle cx="190" cy="70" r="5" transform="rotate(0,190,70)"/><circle cx="190" cy="130" r="5" transform="rotate(0,190,130)"/><circle cx="190" cy="150" r="5" transform="rotate(0,190,150)"/><circle cx="190" cy="160" r="5" transform="rotate(0,190,160)"/><circle cx="190" cy="170" r="5" transform="rotate(0,190,170)"/><circle cx="190" cy="210" r="5" transform="rotate(0,190,210)"/><circle cx="190" cy="230" r="5" transform="rotate(0,190,230)"/><circle cx="190" cy="260" r="5" transform="rotate(0,190,260)"/><circle cx="200" cy="40" r="5" transform="rotate(0,200,40)"/><circle cx="200" cy="80" r="5" transform="rotate(0,200,80)"/><circle cx="200" cy="100" r="5" transform="rotate(0,200,100)"/><circle cx="200" cy="110" r="5" transform="rotate(0,200,110)"/><circle cx="200" cy="120" r="5" transform="rotate(0,200,120)"/><circle cx="200" cy="150" r="5" transform="rotate(0,200,150)"/><circle cx="200" cy="180" r="5" transform="rotate(0,200,180)"/><circle cx="200" cy="190" r="5" transform="rotate(0,200,190)"/><circle cx="200" cy="220" r="5" transform="rotate(0,200,220)"/><circle cx="200" cy="230" r="5" transform="rotate(0,200,230)"/><circle cx="200" cy="240" r="5" transform="rotate(0,200,240)"/><circle cx="200" cy="270" r="5" transform="rotate(0,200,270)"/><circle cx="210" cy="20" r="5" transform="rotate(0,210,20)"/><circle cx="210" cy="40" r="5" transform="rotate(0,210,40)"/><circle cx="210" cy="50" r="5" transform="rotate(0,210,50)"/><circle cx="210" cy="60" r="5" transform="rotate(0,210,60)"/><circle cx="210" cy="70" r="5" transform="rotate(0,210,70)"/><circle cx="210" cy="80" r="5" transform="rotate(0,210,80)"/><circle cx="210" cy="110" r="5" transform="rotate(0,210,110)"/><circle cx="210" cy="120" r="5" transform="rotate(0,210,120)"/><circle cx="210" cy="170" r="5" transform="rotate(0,210,170)"/><circle cx="210" cy="180" r="5" transform="rotate(0,210,180)"/><circle cx="210" cy="190" r="5" transform="rotate(0,210,190)"/><circle cx="210" cy="200" r="5" transform="rotate(0,210,200)"/><circle cx="210" cy="210" r="5" transform="rotate(0,210,210)"/><circle cx="210" cy="220" r="5" transform="rotate(0,210,220)"/><circle cx="210" cy="230" r="5" transform="rotate(0,210,230)"/><circle cx="210" cy="240" r="5" transform="rotate(0,210,240)"/><circle cx="210" cy="250" r="5" transform="rotate(0,210,250)"/><circle cx="210" cy="260" r="5" transform="rotate(0,210,260)"/><circle cx="210" cy="270" r="5" transform="rotate(0,210,270)"/><circle cx="210" cy="280" r="5" transform="rotate(0,210,280)"/><circle cx="220" cy="90" r="5" transform="rotate(0,220,90)"/><circle cx="220" cy="110" r="5" transform="rotate(0,220,110)"/><circle cx="220" cy="130" r="5" transform="rotate(0,220,130)"/><circle cx="220" cy="150" r="5" transform="rotate(0,220,150)"/><circle cx="220" cy="200" r="5" transform="rotate(0,220,200)"/><circle cx="220" cy="210" r="5" transform="rotate(0,220,210)"/><circle cx="220" cy="250" r="5" transform="rotate(0,220,250)"/><circle cx="220" cy="260" r="5" transform="rotate(0,220,260)"/><circle cx="220" cy="280" r="5" transform="rotate(0,220,280)"/><circle cx="220" cy="290" r="5" transform="rotate(0,220,290)"/><circle cx="230" cy="100" r="5" transform="rotate(0,230,100)"/><circle cx="230" cy="120" r="5" transform="rotate(0,230,120)"/><circle cx="230" cy="180" r="5" transform="rotate(0,230,180)"/><circle cx="230" cy="200" r="5" transform="rotate(0,230,200)"/><circle cx="230" cy="210" r="5" transform="rotate(0,230,210)"/><circle cx="230" cy="230" r="5" transform="rotate(0,230,230)"/><circle cx="230" cy="250" r="5" transform="rotate(0,230,250)"/><circle cx="230" cy="270" r="5" transform="rotate(0,230,270)"/><circle cx="230" cy="280" r="5" transform="rotate(0,230,280)"/><circle cx="240" cy="90" r="5" transform="rotate(0,240,90)"/><circle cx="240" cy="130" r="5" transform="rotate(0,240,130)"/><circle cx="240" cy="140" r="5" transform="rotate(0,240,140)"/><circle cx="240" cy="150" r="5" transform="rotate(0,240,150)"/><circle cx="240" cy="160" r="5" transform="rotate(0,240,160)"/><circle cx="240" cy="170" r="5" transform="rotate(0,240,170)"/><circle cx="240" cy="190" r="5" transform="rotate(0,240,190)"/><circle cx="240" cy="210" r="5" transform="rotate(0,240,210)"/><circle cx="240" cy="250" r="5" transform="rotate(0,240,250)"/><circle cx="250" cy="100" r="5" transform="rotate(0,250,100)"/><circle cx="250" cy="110" r="5" transform="rotate(0,250,110)"/><circle cx="250" cy="120" r="5" transform="rotate(0,250,120)"/><circle cx="250" cy="130" r="5" transform="rotate(0,250,130)"/><circle cx="250" cy="160" r="5" transform="rotate(0,250,160)"/><circle cx="250" cy="190" r="5" transform="rotate(0,250,190)"/><circle cx="250" cy="210" r="5" transform="rotate(0,250,210)"/><circle cx="250" cy="220" r="5" transform="rotate(0,250,220)"/><circle cx="250" cy="230" r="5" transform="rotate(0,250,230)"/><circle cx="250" cy="240" r="5" transform="rotate(0,250,240)"/><circle cx="250" cy="250" r="5" transform="rotate(0,250,250)"/><circle cx="250" cy="260" r="5" transform="rotate(0,250,260)"/><circle cx="250" cy="270" r="5" transform="rotate(0,250,270)"/><circle cx="250" cy="290" r="5" transform="rotate(0,250,290)"/><circle cx="260" cy="90" r="5" transform="rotate(0,260,90)"/><circle cx="260" cy="100" r="5" transform="rotate(0,260,100)"/><circle cx="260" cy="110" r="5" transform="rotate(0,260,110)"/><circle cx="260" cy="120" r="5" transform="rotate(0,260,120)"/><circle cx="260" cy="150" r="5" transform="rotate(0,260,150)"/><circle cx="260" cy="170" r="5" transform="rotate(0,260,170)"/><circle cx="260" cy="180" r="5" transform="rotate(0,260,180)"/><circle cx="260" cy="190" r="5" transform="rotate(0,260,190)"/><circle cx="260" cy="200" r="5" transform="rotate(0,260,200)"/><circle cx="260" cy="250" r="5" transform="rotate(0,260,250)"/><circle cx="260" cy="260" r="5" transform="rotate(0,260,260)"/><circle cx="260" cy="280" r="5" transform="rotate(0,260,280)"/><circle cx="270" cy="90" r="5" transform="rotate(0,270,90)"/><circle cx="270" cy="120" r="5" transform="rotate(0,270,120)"/><circle cx="270" cy="140" r="5" transform="rotate(0,270,140)"/><circle cx="270" cy="160" r="5" transform="rotate(0,270,160)"/><circle cx="270" cy="170" r="5" transform="rotate(0,270,170)"/><circle cx="270" cy="210" r="5" transform="rotate(0,270,210)"/><circle cx="270" cy="240" r="5" transform="rotate(0,270,240)"/><circle cx="270" cy="270" r="5" transform="rotate(0,270,270)"/><circle cx="270" cy="290" r="5" transform="rotate(0,270,290)"/><circle cx="280" cy="90" r="5" transform="rotate(0,280,90)"/><circle cx="280" cy="110" r="5" transform="rotate(0,280,110)"/><circle cx="280" cy="120" r="5" transform="rotate(0,280,120)"/><circle cx="280" cy="140" r="5" transform="rotate(0,280,140)"/><circle cx="280" cy="170" r="5" transform="rotate(0,280,170)"/><circle cx="280" cy="200" r="5" transform="rotate(0,280,200)"/><circle cx="280" cy="210" r="5" transform="rotate(0,280,210)"/><circle cx="280" cy="220" r="5" transform="rotate(0,280,220)"/><circle cx="280" cy="250" r="5" transform="rotate(0,280,250)"/><circle cx="280" cy="260" r="5" transform="rotate(0,280,260)"/><circle cx="280" cy="280" r="5" transform="rotate(0,280,280)"/><circle cx="290" cy="120" r="5" transform="rotate(0,290,120)"/><circle cx="290" cy="140" r="5" transform="rotate(0,290,140)"/><circle cx="290" cy="150" r="5" transform="rotate(0,290,150)"/><circle cx="290" cy="160" r="5" transform="rotate(0,290,160)"/><circle cx="290" cy="170" r="5" transform="rotate(0,290,170)"/><circle cx="290" cy="190" r="5" transform="rotate(0,290,190)"/><circle cx="290" cy="210" r="5" transform="rotate(0,290,210)"/><circle cx="290" cy="220" r="5" transform="rotate(0,290,220)"/><circle cx="290" cy="240" r="5" transform="rotate(0,290,240)"/><circle cx="290" cy="260" r="5" transform="rotate(0,290,260)"/><circle cx="290" cy="280" r="5" transform="rotate(0,290,280)"/></g><g class="green-dots"/><g class="corners-square-color-0-0"><path clip-rule="evenodd" d="M 5 15v 50a 10 10, 0, 0, 0, 10 10h 50a 10 10, 0, 0, 0, 10 -10v -50a 10 10, 0, 0, 0, -10 -10h -50a 10 10, 0, 0, 0, -10 10zM 20 15h 40a 5 5, 0, 0, 1, 5 5v 40a 5 5, 0, 0, 1, -5 5h -40a 5 5, 0, 0, 1, -5 -5v -40a 5 5, 0, 0, 1, 5 -5z" transform="rotate(0,40,40)"/></g><g class="corners-dot-color-0-0"><rect x="25" y="25" width="30" height="30" rx="7.5" ry="7.5" transform="rotate(0,40,40)"/></g><g class="corners-square-color-1-0"><path clip-rule="evenodd" d="M 225 15v 50a 10 10, 0, 0, 0, 10 10h 50a 10 10, 0, 0, 0, 10 -10v -50a 10 10, 0, 0, 0, -10 -10h -50a 10 10, 0, 0, 0, -10 10zM 240 15h 40a 5 5, 0, 0, 1, 5 5v 40a 5 5, 0, 0, 1, -5 5h -40a 5 5, 0, 0, 1, -5 -5v -40a 5 5, 0, 0, 1, 5 -5z" transform="rotate(90,260,40)"/></g><g class="corners-dot-color-1-0"><rect x="245" y="25" width="30" height="30" rx="7.5" ry="7.5" transform="rotate(90,260,40)"/></g><g class="corners-square-color-0-1"><path clip-rule="evenodd" d="M 5 235v 50a 10 10, 0, 0, 0, 10 10h 50a 10 10, 0, 0, 0, 10 -10v -50a 10 10, 0, 0, 0, -10 -10h -50a 10 10, 0, 0, 0, -10 10zM 20 235h 40a 5 5, 0, 0, 1, 5 5v 40a 5 5, 0, 0, 1, -5 5h -40a 5 5, 0, 0, 1, -5 -5v -40a 5 5, 0, 0, 1, 5 -5z" transform="rotate(-90,40,260)"/></g><g class="corners-dot-color-0-1"><rect x="25" y="245" width="30" height="30" rx="7.5" ry="7.5" transform="rotate(-90,40,260)"/></g></svg></g></svg></svg>